<svg xmlns="http://www.w3.org/2000/svg" id="Layer_1" data-name="Layer 1" viewBox="0 0 530.21 227.42"><defs><style>      .cls-1 {        fill: #6ef3b5;      }      .cls-1, .cls-2, .cls-3 {        stroke-width: 0px;      }      .cls-2 {        fill: #9cd4b6;      }      .cls-3 {        fill: #9bd4b6;      }    </style></defs><path class="cls-2" d="M527.4,110.33c-1.06,0-1.92-.8-1.92-1.78v-30.23c0-.98.86-1.78,1.92-1.78s1.92.8,1.92,1.78v30.23c0,.98-.86,1.78-1.92,1.78"></path><path class="cls-2" d="M515.78,133.32c-1.06,0-1.92-.86-1.92-1.92V55.42c0-1.06.86-1.92,1.92-1.92s1.92.86,1.92,1.92v75.98c0,1.06-.86,1.92-1.92,1.92"></path><path class="cls-2" d="M504.17,144.21c-1.06,0-1.92-.86-1.92-1.92V44.59c0-1.06.86-1.92,1.92-1.92s1.92.86,1.92,1.92v97.69c0,1.06-.86,1.92-1.92,1.92"></path><path class="cls-2" d="M492.55,150.73c-1.06,0-1.92-.86-1.92-1.92V38.08c0-1.06.86-1.92,1.92-1.92s1.92.86,1.92,1.92v110.73c0,1.06-.86,1.92-1.92,1.92"></path><path class="cls-2" d="M480.93,154.24c-1.06,0-1.92-.86-1.92-1.93V34.56c0-1.06.86-1.92,1.92-1.92s1.92.86,1.92,1.92v117.76c0,1.06-.86,1.93-1.92,1.93"></path><path class="cls-2" d="M469.32,155.24c-1.06,0-1.92-.86-1.92-1.92V33.43c0-1.06.86-1.92,1.92-1.92s1.92.86,1.92,1.92v119.88c0,1.06-.86,1.92-1.92,1.92"></path><path class="cls-3" d="M457.7,154.24c-1.06,0-1.92-.86-1.92-1.93V34.56c0-1.06.86-1.92,1.92-1.92s1.92.86,1.92,1.92v117.76c0,1.06-.86,1.93-1.92,1.93"></path><path class="cls-2" d="M446.08,150.7c-1.06,0-1.92-.86-1.92-1.92V38.08c0-1.06.86-1.92,1.92-1.92s1.92.86,1.92,1.92v110.7c0,1.06-.86,1.92-1.92,1.92"></path><path class="cls-2" d="M434.47,144.21c-1.06,0-1.92-.86-1.92-1.93V44.59c0-1.06.86-1.92,1.92-1.92s1.92.86,1.92,1.92v97.69c0,1.06-.86,1.93-1.92,1.93"></path><path class="cls-2" d="M422.85,133.32c-1.06,0-1.92-.86-1.92-1.92V55.48c0-1.06.86-1.92,1.92-1.92s1.92.86,1.92,1.92v75.92c0,1.06-.86,1.92-1.92,1.92"></path><path class="cls-2" d="M411.23,110.33c-1.06,0-1.92-.8-1.92-1.78v-30.23c0-.98.86-1.78,1.92-1.78s1.92.8,1.92,1.78v30.23c0,.98-.86,1.78-1.92,1.78"></path><path class="cls-1" d="M449.48,93.44c0-7.75-.27-15.04-.77-20.53-.82-9.09-1.83-9.09-2.63-9.09s-1.8,0-2.63,9.09c-.5,5.49-.77,12.78-.77,20.53s.27,15.04.77,20.53c.83,9.09,1.83,9.09,2.63,9.09s1.81,0,2.63-9.09c.5-5.49.77-12.78.77-20.53h0Z"></path><path class="cls-1" d="M413.78,93.51c0-4.11-.44-9-2.55-9s-2.55,4.89-2.55,9,.44,9,2.55,9,2.55-4.9,2.55-9h0Z"></path><path class="cls-1" d="M425.68,93.35c0-4.09-.22-7.94-.62-10.85-.63-4.59-1.44-4.97-2.21-4.97s-1.58.38-2.21,4.97c-.4,2.9-.62,6.75-.62,10.85s.22,7.94.62,10.84c.64,4.59,1.44,4.97,2.21,4.97s1.58-.38,2.21-4.97c.4-2.9.62-6.75.62-10.84h0Z"></path><path class="cls-1" d="M437.58,93.37c0-5.92-.24-11.5-.68-15.69-.74-7.06-1.64-7.06-2.44-7.06s-1.7,0-2.44,7.06c-.44,4.19-.68,9.77-.68,15.69s.24,11.5.68,15.69c.74,7.06,1.64,7.06,2.44,7.06s1.7,0,2.44-7.06c.44-4.19.68-9.77.68-15.69h0Z"></path><path class="cls-1" d="M461.24,93.44c0-9.61-.28-18.64-.8-25.43-.85-11.13-1.85-11.13-2.74-11.13s-1.89,0-2.74,11.13c-.52,6.8-.8,15.83-.8,25.43s.29,18.64.8,25.43c.85,11.13,1.85,11.13,2.74,11.13s1.89,0,2.74-11.13c.52-6.8.8-15.83.8-25.43h0Z"></path><path class="cls-1" d="M484.76,93.51c0-13.2-.31-25.61-.87-34.95-.92-15.3-2-15.3-2.96-15.3s-2.04,0-2.96,15.3c-.56,9.34-.87,21.75-.87,34.95s.31,25.61.87,34.95c.92,15.3,2,15.3,2.96,15.3s2.04,0,2.96-15.3c.56-9.34.87-21.75.87-34.95h0Z"></path><path class="cls-1" d="M473,93.65c0-11.38-.3-22.07-.84-30.12-.88-13.18-1.93-13.18-2.85-13.18s-1.97,0-2.85,13.18c-.54,8.05-.84,18.75-.84,30.12s.3,22.07.84,30.12c.88,13.18,1.93,13.18,2.85,13.18s1.97,0,2.85-13.18c.54-8.05.84-18.75.84-30.12h0Z"></path><path class="cls-1" d="M496.52,93.44c0-15.05-.32-29.2-.9-39.85-.95-17.44-2.08-17.44-3.07-17.44s-2.12,0-3.07,17.44c-.58,10.65-.9,24.8-.9,39.85s.32,29.2.9,39.85c.95,17.44,2.08,17.44,3.07,17.44s2.12,0,3.07-17.44c.58-10.65.9-24.8.9-39.85h0Z"></path><path class="cls-1" d="M507.85,93.61c0-11.25-.3-21.83-.83-29.79-.88-13.04-1.93-13.04-2.85-13.04s-1.97,0-2.85,13.04c-.54,7.96-.84,18.54-.84,29.79s.3,21.83.84,29.79c.88,13.04,1.93,13.04,2.85,13.04s1.97,0,2.85-13.04c.54-7.96.83-18.54.83-29.79h0Z"></path><path class="cls-1" d="M519.18,93.58c0-7.49-.27-14.54-.77-19.84-.82-8.68-1.78-8.68-2.63-8.68s-1.81,0-2.63,8.68c-.5,5.3-.77,12.35-.77,19.84s.27,14.54.77,19.84c.82,8.68,1.78,8.68,2.63,8.68s1.82,0,2.63-8.68c.5-5.3.77-12.35.77-19.84h0Z"></path><path class="cls-1" d="M530.21,93.58c0-3.65-.23-7.08-.64-9.66-.68-4.23-1.48-4.23-2.19-4.23s-1.51,0-2.19,4.23c-.41,2.58-.64,6.01-.64,9.66s.23,7.08.64,9.66c.68,4.23,1.48,4.23,2.19,4.23s1.51,0,2.19-4.23c.41-2.58.64-6.01.64-9.66h0Z"></path><path class="cls-1" d="M142.18,227.42c5.23,0,9.76-2.44,12.65-6.42.1-.2.2-.5-.15-.75l-2.84-2.14c-.3-.25-.6-.15-.8.1-1.74,2.84-4.93,4.73-8.86,4.73-5.73,0-10.36-4.88-10.36-10.66v-.05c0-5.68,4.63-10.56,10.36-10.56,3.54,0,6.77,1.79,8.62,4.73.15.25.5.35.8.15l2.84-2.29c.2-.15.2-.5.05-.7-2.84-3.98-7.27-6.37-12.3-6.37-8.32,0-15.19,6.77-15.19,15.04s6.87,15.19,15.19,15.19h0ZM174,226.77h3.88c.3,0,.55-.15.55-.5,0-1.49-.05-3.24-.05-5.58v-10.86c0-4.58,3.24-8.22,8.42-8.22,4.63,0,7.52,2.74,7.52,7.52v11.55c0,2.54-.05,4.03-.05,5.58,0,.35.25.5.5.5h3.93c.25,0,.5-.15.5-.5,0-1.49-.05-3.29-.05-5.58v-11.75c-.05-6.62-4.33-11.8-11.8-11.8-3.88,0-7.22,1.79-8.96,4.38v-6.02c0-2.49.05-4.08.05-5.58,0-.35-.25-.5-.55-.5h-3.88c-.25,0-.5.15-.5.5,0,1.54.05,2.84.05,5.58v25.2c0,2.59-.05,4.03-.05,5.58,0,.35.25.5.5.5h0ZM233.2,227.42c3.34,0,6.87-1.14,9.76-3.83v2.69c0,.3.2.5.55.5h3.83c.3,0,.55-.2.55-.5,0-1.74-.1-3.83-.1-6.32v-14.74c0-3.04.1-4.93.1-6.92,0-.3-.25-.5-.55-.5h-3.83c-.35,0-.55.2-.55.5v2.69c-2.79-2.54-6.27-3.79-9.76-3.79-8.27,0-15.14,6.77-15.14,15.04s6.87,15.19,15.14,15.19h0ZM233.2,222.93c-5.78,0-10.31-4.88-10.31-10.71s4.53-10.56,10.31-10.56,9.61,4.78,9.61,8.36v4.43c0,3.68-3.83,8.46-9.61,8.46h0ZM268.46,226.77h3.88c.3,0,.55-.15.55-.5,0-1.49-.05-3.14-.05-5.68v-10.9c0-4.63,3.24-7.92,7.37-7.92.95,0,1.89.1,2.84.5.25.1.55-.05.6-.4l.85-3.24c.05-.2.05-.45-.35-.6-1.2-.45-2.49-.65-4.23-.65-2.64,0-5.63,1.39-7.42,3.73v-2.79c0-.3-.2-.55-.55-.55h-3.48c-.35,0-.55.25-.55.55,0,1.59.1,3.29.1,6.03v16.23c0,2.79-.05,4.13-.05,5.68,0,.35.25.5.5.5h0ZM302.27,226.77h7.17c.3,0,.5-.2.5-.5v-3.54c0-.3-.2-.5-.5-.5-.45,0-1.69.05-2.54.05h-.1c-.3,0-.4-.2-.4-.5v-26.14c0-2.64.05-4.23.05-5.73,0-.3-.25-.5-.55-.5h-3.88c-.3,0-.5.2-.5.5,0,1.49.05,2.84.05,5.73v30.32c0,.5.25.8.7.8h0ZM332.64,193.9c1.79,0,2.99-1,2.99-2.49s-1.19-2.54-2.99-2.54c-1.89,0-3.04,1-3.04,2.54s1.15,2.49,3.04,2.49h0ZM330.7,226.77h3.83c.3,0,.55-.15.55-.5,0-1.49-.05-3.09-.05-5.63v-16.73c0-2.54.05-4.13.05-5.63,0-.35-.25-.5-.55-.5h-3.83c-.3,0-.55.15-.55.5,0,1.49.05,2.84.05,5.63v16.73c0,2.79-.05,4.08-.05,5.63,0,.35.25.5.55.5h0ZM370.14,227.42c5.28,0,9.86-2.44,12.75-6.42.15-.2.2-.5-.1-.75l-2.84-2.19c-.3-.2-.6-.1-.75.15-1.89,2.89-5.13,4.73-9.01,4.73-5.13,0-9.16-3.58-10.16-8.42h23.7c1.1,0,1.59-1.1,1.59-2.34,0-8.26-6.92-14.99-15.24-14.99s-15.14,6.77-15.14,15.04,6.82,15.19,15.19,15.19h0ZM370.09,201.67c5.03,0,9.21,3.64,10.21,8.36h-20.27c.95-4.88,5.08-8.36,10.06-8.36h0Z"></path><path class="cls-1" d="M61.96,154.99c21.53,0,40.22-9.95,52-26.2.61-.81.81-2.03-.41-3.05l-11.58-8.94c-1.22-.81-2.44-.41-3.05.61-7.72,11.78-20.92,19.3-36.77,19.3-20.92,0-37.38-14.63-41.44-34.33h96.69c4.47,0,6.5-4.47,6.5-9.55,0-33.72-28.24-61.14-62.16-61.14S0,59.32,0,93.04s27.83,61.96,61.96,61.96h0ZM61.75,49.97c20.52,0,37.58,14.83,41.64,34.13H20.72c3.86-19.91,20.72-34.13,41.03-34.13h0ZM205.98,154.99c21.33,0,39.82-9.95,51.6-26.2.41-.81.81-2.03-.61-3.05l-11.58-8.74c-1.22-1.01-2.44-.61-3.25.41-7.11,11.58-20.11,19.3-36.16,19.3-23.36,0-42.25-19.91-42.25-43.47v-.2c0-23.16,18.89-43.06,42.25-43.06,14.42,0,27.63,7.31,35.14,19.3.61,1.02,2.03,1.42,3.25.61l11.58-9.34c.81-.61.81-2.03.2-2.84-11.58-16.25-29.66-26-50.18-26-33.92,0-61.96,27.63-61.96,61.35s28.03,61.96,61.96,61.96h0ZM284.96,155.07h15.85c1.22,0,2.23-.61,2.23-2.03,0-6.09-.16-15.92-.16-25.47v-44.28c0-18.69,13.2-33.52,34.33-33.52,18.89,0,30.67,11.17,30.67,30.67v47.13c0,10.36-.13,19.17-.13,25.47,0,1.42,1.02,2.03,2.03,2.03h16.05c1.02,0,2.03-.61,2.03-2.03,0-6.09-.28-16.13-.28-25.47v-47.94c-.2-27.02-17.67-48.14-48.14-48.14-15.85,0-29.45,7.31-36.57,17.88v-24.58c0-10.16.2-16.66.2-22.75,0-1.42-1.02-2.03-2.24-2.03h-15.84c-1.01,0-2.03.61-2.03,2.03,0,6.3.2,11.58.2,22.75v102.79c0,10.56-.24,19.17-.24,25.47,0,1.42,1.02,2.03,2.03,2.03h0Z"></path></svg>